# xmcd
#
# Track frame offsets:
#	150
#	13636
#	36064
#	74853
#	111145
#	138970
#	183257
#
# Disc length: 2837 seconds
#
# Revision: 0
# Processed by: cddbd v1.4PL0 Copyright (c) Steve Scherf et al.
# Submitted via: audiograbber 1.81.02
#
DISCID=5d0b1307
DTITLE=Allman Brothers Band - Oak Mountain Amphitheater - 1996-05-03 - Disc 1
DYEAR=1900
DGENRE=
TTITLE0=Don't Want You No More
TTITLE1=It's Not My Cross To Bear
TTITLE2=Ain't Waistin' Time No More
TTITLE3=Seven Turns
TTITLE4=Good Clean Fun
TTITLE5=Hoochie Coochie Man
TTITLE6=Tombstone Eyes
EXTD=
EXTT0=
EXTT1=
EXTT2=
EXTT3=
EXTT4=
EXTT5=
EXTT6=
PLAYORDER=
